PathFileType	4	(X/Y/Z)	./resultDataOpenSim/trcMotMarkerGrf/sub10/qtm-01-05.trc
DataRate	CameraRate	NumFrames	NumMarkers	Units	OrigDataRate	OrigDataStartFrame	OrigNumFrames
250.000000	250.000000	12	24	m	250.000000	1	487
Frame#	Time	L.Toe.Tip			R.Toe.Tip			L.Ankle.Lat			R.Ankle.Lat			L.Ankle.Med			R.Ankle.Med			L.Heel			R.Heel			L.Knee.Lat			R.Knee.Lat			L.Knee.Med			R.Knee.Med			L.Thigh.Upper			R.Thigh.Upper			L.ASIS			R.ASIS			V.Sacral			L.Acromium			R.Acromium			C7			L.Elbow			R.Elbow			L.Wrist.Lat			R.Wrist.Lat
		X1	Y1	Z1	X2	Y2	Z2	X3	Y3	Z3	X4	Y4	Z4	X5	Y5	Z5	X6	Y6	Z6	X7	Y7	Z7	X8	Y8	Z8	X9	Y9	Z9	X10	Y10	Z10	X11	Y11	Z11	X12	Y12	Z12	X13	Y13	Z13	X14	Y14	Z14	X15	Y15	Z15	X16	Y16	Z16	X17	Y17	Z17	X18	Y18	Z18	X19	Y19	Z19	X20	Y20	Z20	X21	Y21	Z21	X22	Y22	Z22	X23	Y23	Z23	X24	Y24	Z24

1	0	-1.5358246	0.037728164	-0.14175523	-0.95627992	0.11654583	-0.011826552	-1.6688967	0.069855272	-0.18876415	-1.090489	0.07005465	0.0059324088	-1.6662313	0.088360132	-0.096981525	-1.0757119	0.11330395	-0.069789377	NaN	NaN	NaN	-1.1179402	0.03229298	-0.052896575	-1.5407491	0.43277378	-0.21509438	-1.2366301	0.44343185	0.053872699	-1.543321	0.41281502	-0.093617092	-1.2194275	0.45453424	-0.074884299	-1.4485999	0.81832786	-0.27564793	-1.3851695	0.83073043	0.10398923	-1.372742	0.92207401	-0.21861507	-1.3292841	0.92332692	0.02369355	-1.5464744	0.93374801	-0.062471389	-1.368151	1.3888844	-0.24480385	-1.3948991	1.3837188	0.07953446	-1.4646599	1.4233886	-0.091700821	-1.3951653	1.0460036	-0.31368201	NaN	NaN	NaN	-1.1965142	0.89808952	-0.33035423	-1.4669305	0.86739459	0.1579918
2	0.004	-1.5357543	0.037690942	-0.14176623	-0.944947	0.11932434	-0.012499378	-1.6686604	0.070194459	-0.18843239	-1.0786625	0.07105021	0.007201381	-1.6654868	0.088723718	-0.096853874	-1.0651298	0.11433247	-0.068876188	NaN	NaN	NaN	-1.1058186	0.032826439	-0.050737162	-1.537544	0.43206235	-0.214859	-1.2307745	0.44235233	0.054665672	-1.5402287	0.41208817	-0.093238491	-1.2140667	0.45313996	-0.074262805	-1.444523	0.81734726	-0.27562855	-1.3786427	0.82909733	0.10414025	-1.3682299	0.92092936	-0.21876574	-1.3233468	0.92217303	0.023375924	-1.5411302	0.93233264	-0.061308979	-1.3633978	1.3875385	-0.24483606	-1.3899307	1.3823374	0.079580284	-1.4597614	1.4221219	-0.091542502	-1.3887969	1.044737	-0.31325499	NaN	NaN	NaN	-1.1894576	0.89786029	-0.32998518	-1.4637121	0.86611155	0.15779386
3	0.008	-1.5356856	0.037659311	-0.14177497	-0.93383865	0.12196213	-0.013124534	-1.6684435	0.070557587	-0.18818141	-1.0671831	0.071955912	0.0083911931	-1.6648063	0.089116073	-0.096690543	-1.0547126	0.11530483	-0.067954137	NaN	NaN	NaN	-1.093961	0.033353802	-0.048628676	-1.5343258	0.43136548	-0.21464337	-1.2247999	0.44131157	0.055486284	-1.5369793	0.41134852	-0.092903124	-1.2086956	0.45176203	-0.073631913	-1.4404762	0.8163386	-0.27560503	-1.3721294	0.82748909	0.10426022	-1.363741	0.91977931	-0.21891867	-1.3174563	0.92100863	0.023029145	-1.5358576	0.93087274	-0.060256114	-1.3586093	1.3861735	-0.24484337	-1.3849291	1.3809433	0.079632065	-1.4548525	1.4208517	-0.091417403	-1.3824907	1.0434149	-0.31301141	NaN	NaN	NaN	-1.1823544	0.89762009	-0.32958171	-1.4609445	0.86475562	0.15744816
4	0.012	-1.5356253	0.037633765	-0.1417788	-0.9230436	0.12431286	-0.013566257	-1.6682447	0.070955624	-0.18798891	-1.0561722	0.072756694	0.0094897639	-1.6641561	0.089566256	-0.096472309	-1.0445755	0.11618565	-0.067014048	NaN	NaN	NaN	-1.0825576	0.033874251	-0.046660885	-1.5310787	0.43067784	-0.21445297	-1.2186452	0.44035394	0.056339	-1.5335086	0.41059429	-0.092640143	-1.203317	0.45041067	-0.07298424	-1.4364468	0.81529436	-0.27559022	-1.3655804	0.82591902	0.10436595	-1.3592545	0.91862231	-0.21907765	-1.3116043	0.91982462	0.022649102	-1.5306953	0.92934216	-0.059371518	-1.3537555	1.3847799	-0.24482254	-1.3798516	1.3795372	0.079690222	-1.4499221	1.4195755	-0.091330411	-1.3762515	1.0420275	-0.31295644	NaN	NaN	NaN	-1.1751955	0.89736324	-0.3291385	-1.4585653	0.86333118	0.15696048
5	0.016	-1.535582	0.037611363	-0.14177331	-0.91257388	0.12627572	-0.01368718	-1.6680657	0.071397748	-0.18779	-1.0455692	0.073494036	0.010542685	-1.663278	0.09012028	-0.096191974	-1.0347976	0.1169602	-0.06605519	NaN	NaN	NaN	-1.0716979	0.034375252	-0.044886239	-1.5277847	0.42998946	-0.21428623	-1.212299	0.43951577	0.057215503	-1.529848	0.40984045	-0.092443998	-1.1979475	0.44909551	-0.07231318	-1.4323486	0.81423148	-0.27554712	-1.3589625	0.82439981	0.10449927	-1.3547432	0.91745718	-0.21924773	-1.3057442	0.91861967	0.022263028	-1.52565	0.92775562	-0.058651401	-1.3488292	1.383365	-0.24478249	-1.3746975	1.3781337	0.079759766	-1.4449695	1.4182993	-0.091264988	-1.3700618	1.0406005	-0.31297129	NaN	NaN	NaN	-1.168037	0.89708938	-0.32868095	-1.4562815	0.86188216	0.15641271
6	0.02	-1.5355578	0.03759042	-0.14175325	-0.9024623	0.12784694	-0.013548502	-1.6679259	0.071908164	-0.18756257	-1.0352931	0.074187967	0.011598485	-1.6616739	0.090824409	-0.095859127	-1.0253921	0.11762841	-0.065082555	NaN	NaN	NaN	-1.06138	0.034830248	-0.043272441	-1.5244261	0.4293072	-0.21413757	-1.2057076	0.43882839	0.058113421	-1.5260977	0.40909842	-0.092264982	-1.1925831	0.44782658	-0.0716073	-1.4280699	0.81317408	-0.27540255	-1.3522957	0.82294284	0.10467622	-1.3501959	0.91628043	-0.21943182	-1.2998282	0.91740212	0.021904114	-1.5207075	0.92616278	-0.058066123	-1.3438432	1.3819398	-0.24472988	-1.3694903	1.3767486	0.079836194	-1.4399896	1.417032	-0.09120145	-1.3639088	1.0391568	-0.31295133	-1.5616296	1.0828411	0.11616549	-1.1609437	0.8967999	-0.32824054	-1.4539707	0.86042806	0.1558509
7	0.024	-1.5355443	0.037572082	-0.14171813	-0.89279719	0.12907627	-0.013399573	-1.6678192	0.072498804	-0.18728533	-1.0253462	0.074807623	0.012674044	-1.6591023	0.091657234	-0.095499816	-1.0163135	0.11819684	-0.064096063	NaN	NaN	NaN	-1.051584	0.035216647	-0.041761424	-1.5210046	0.42864615	-0.21399361	-1.1988221	0.4383065	0.059024265	-1.5223762	0.40835687	-0.092044307	-1.1871957	0.44661248	-0.070852656	-1.4235868	0.81213657	-0.27514615	-1.3455906	0.82156282	0.10488535	-1.3456081	0.91509442	-0.21962521	-1.293849	0.91618934	0.021580596	-1.5158358	0.92460896	-0.057565988	-1.3388264	1.3805115	-0.24467663	-1.3642511	1.3753878	0.079901481	-1.434976	1.4157792	-0.091129852	-1.3577913	1.0377063	-0.31285123	-1.5572384	1.0825116	0.11626914	-1.1539387	0.89649842	-0.3278273	-1.4517816	0.85894157	0.15526897
8	0.028	-1.535528	0.037558583	-0.14167494	-0.88367347	0.12997653	-0.013423207	-1.6676457	0.073090837	-0.18679856	-1.0157944	0.075303764	0.013760775	-1.6562358	0.092503114	-0.095121499	-1.007535	0.11865724	-0.063091198	NaN	NaN	NaN	-1.0423094	0.035521359	-0.040318392	-1.5175351	0.4280055	-0.21383896	-1.1917319	0.43791397	0.059919804	-1.5187032	0.40760203	-0.091767683	-1.1817487	0.44546016	-0.070044466	-1.4189652	0.811119	-0.2748247	-1.3388307	0.82027832	0.10511183	-1.3409729	0.91390631	-0.21981836	-1.2878421	0.91499398	0.02127447	-1.5109588	0.92309545	-0.057049026	-1.3337963	1.3790863	-0.24464111	-1.3590118	1.3740442	0.079956878	-1.4299318	1.4145414	-0.09105775	-1.3517134	1.0362525	-0.3126656	-1.5528322	1.082016	0.11613706	-1.1470062	0.89619012	-0.32742464	-1.4499587	0.857374	0.1546457
9	0.032	-1.5355013	0.037549881	-0.14163145	-0.87513542	0.13050621	-0.013604916	-1.6671855	0.073459097	-0.18570167	-1.0067137	0.075638353	0.014848569	-1.654148	0.093257807	-0.094707164	-0.99910335	0.11897061	-0.06207136	NaN	NaN	NaN	-1.0335674	0.035729005	-0.038924972	-1.5140241	0.42737068	-0.21366128	-1.1846352	0.43758155	0.060761032	-1.514976	0.40683892	-0.091467251	-1.1762095	0.44437601	-0.069199392	-1.4142901	0.81011315	-0.27447391	-1.3320454	0.81909401	0.10534281	-1.3362866	0.91272061	-0.22000961	-1.2818575	0.91381318	0.020965594	-1.5059912	0.92158518	-0.056413343	-1.328743	1.3776733	-0.24462413	-1.3537924	1.372709	0.080027443	-1.4248663	1.4133212	-0.090994312	-1.345677	1.0347986	-0.31240654	-1.5483781	1.0813026	0.11569298	-1.1401259	0.89587746	-0.32700872	-1.4484191	0.85573841	0.15401006
10	0.036	-1.5354686	0.037542706	-0.14158991	-0.86711227	0.13064396	-0.013808417	-1.6662376	0.07338143	-0.18360666	-0.99814932	0.075792624	0.015945205	-1.6528966	0.093962126	-0.094263572	-0.99108823	0.11908819	-0.061044917	NaN	NaN	NaN	-1.0253656	0.035818925	-0.037557322	-1.5104644	0.42673841	-0.21345017	-1.1776604	0.43727196	0.061516328	-1.511097	0.40607566	-0.091169133	-1.1705484	0.44336864	-0.068353812	-1.4096305	0.8091123	-0.27412154	-1.3252898	0.81800061	0.10557478	-1.3315515	0.91153977	-0.22020554	-1.2759221	0.9126396	0.020653009	-1.5008986	0.92004393	-0.055636332	-1.3236422	1.376283	-0.24459783	-1.3485565	1.3713898	0.08012723	-1.4197786	1.4121281	-0.090923603	-1.3396771	1.0333483	-0.31208846	-1.5439097	1.0804766	0.11502328	-1.1332903	0.89556055	-0.32656384	-1.4465957	0.85414937	0.15346174
11	0.04	-1.5354383	0.037534241	-0.14154938	-0.85938225	0.13046528	-0.013856154	-1.6649029	0.072978308	-0.18075745	-0.99010537	0.075764443	0.017071741	-1.6517309	0.094721769	-0.093818934	-0.98350932	0.11898784	-0.060008087	NaN	NaN	NaN	-1.0177011	0.035775199	-0.036178032	-1.506847	0.42612181	-0.21319903	-1.1707745	0.4370144	0.062178395	-1.5070737	0.40531551	-0.090862407	-1.1647351	0.44245487	-0.067544136	-1.4050178	0.80811951	-0.27379866	-1.3185616	0.8169979	0.1058182	-1.3267699	0.91036584	-0.22040308	-1.2700126	0.91148081	0.020356707	-1.4957087	0.91846789	-0.054775047	-1.3184818	1.3749268	-0.24453321	-1.3432396	1.370104	0.080246971	-1.4146569	1.4109685	-0.090815677	-1.3337036	1.0319051	-0.31171793	-1.5395209	1.0797075	0.11426364	-1.1264951	0.89524372	-0.32607714	-1.4439963	0.85271899	0.15307934
12	0.044	-1.5354126	0.037524688	-0.14150941	-0.85171997	0.13010964	-0.013609292	-1.6636155	0.072738953	-0.17808942	-0.98256695	0.075564285	0.018240106	-1.6505916	0.095527676	-0.093374394	-0.97633572	0.11868136	-0.058943082	NaN	NaN	NaN	-1.0105573	0.035586197	-0.034744841	-1.5031681	0.4255301	-0.21291221	-1.1637707	0.43689435	0.062784675	-1.5029731	0.4045688	-0.090527305	-1.1587455	0.44165985	-0.066785767	-1.4004406	0.80714769	-0.27350402	-1.311823	0.81610528	0.10608477	-1.3219403	0.90920089	-0.22058358	-1.2640698	0.91036157	0.020098658	-1.4905149	0.91687358	-0.053959161	-1.3132727	1.3736151	-0.24442822	-1.3378189	1.3688594	0.080378258	-1.4094952	1.40984	-0.090659344	-1.3277518	1.0304722	-0.31129634	-1.5352518	1.0790786	0.11350673	-1.1197299	0.89493649	-0.32553559	-1.4407805	0.85143638	0.15281585
